<svg width="45" height="40" xmlns="http://www.w3.org/2000/svg">
    <path d="m44.614 35.719-19.668-34.3c-1.087-1.892-3.805-1.892-4.892 0L.386 35.719C-.7 37.61.633 40 2.808 40h39.336c2.223 0 3.558-2.39 2.47-4.281zM21.883 11.923c1.186-.299 2.372.299 2.915 1.394.198.398.247.846.198 1.244a92.118 92.118 0 0 0-.198 3.784c-.099 1.941-.247 3.933-.346 5.874-.05.597-.05 1.195-.099 1.842-.049 1.045-.84 1.842-1.877 1.842a1.898 1.898 0 0 1-1.878-1.792c-.148-3.037-.346-6.074-.494-9.11-.05-.797-.1-1.643-.149-2.44 0-1.194.791-2.34 1.928-2.638zm.642 22.8c-1.384 0-2.47-1.145-2.47-2.539 0-1.394 1.136-2.539 2.52-2.539 1.383 0 2.47 1.145 2.47 2.589-.05 1.344-1.186 2.49-2.52 2.49z" fill="#F63032" fill-rule="nonzero"/>
</svg>
