<svg width="14" height="14" xmlns="http://www.w3.org/2000/svg">
    <g stroke="#FFF" stroke-width="1.125" fill="none" fill-rule="evenodd" stroke-linecap="round" stroke-linejoin="round">
        <path d="M11.585 7v-.42l1.169-.84a.644.644 0 0 0 .184-.78L11.77 3.04c-.123-.24-.492-.36-.738-.24l-1.293.54A4.62 4.62 0 0 0 9 2.92l-.185-1.38C8.754 1.24 8.508 1 8.2 1H5.923c-.308 0-.554.24-.615.54l-.246 1.38c-.308.12-.493.24-.739.42L2.97 2.8c-.307-.12-.615 0-.738.24L1.06 4.96c-.123.24-.061.6.185.78l1.17.84v.84l-1.17.84a.644.644 0 0 0-.184.78l1.169 1.92c.123.24.492.36.738.24l1.354-.54c.246.18.492.3.739.42l.184 1.38c.062.3.308.54.616.54h2.276c.308 0 .554-.24.616-.54l.184-1.38c.247-.12.493-.24.739-.42l1.292.54c.308.12.616 0 .739-.24l1.169-1.92a.644.644 0 0 0-.185-.78l-1.169-.84c.062-.18.062-.3.062-.42z"/>
        <path d="M6.97 8.62c.917 0 1.66-.725 1.66-1.62 0-.895-.743-1.62-1.66-1.62-.918 0-1.662.725-1.662 1.62 0 .895.744 1.62 1.661 1.62z"/>
    </g>
</svg>
