<svg width="14" height="18" xmlns="http://www.w3.org/2000/svg">
    <defs>
        <linearGradient x1="79.454%" y1="-5.5%" x2="3.581%" y2="91.677%" id="a">
            <stop stop-color="#11BCE2" offset="0%"/>
            <stop stop-color="#0569F7" offset="100%"/>
        </linearGradient>
    </defs>
    <path d="M1048.25 305h-.875v-1.714c0-2.4-1.925-4.286-4.375-4.286s-4.375 1.886-4.375 4.286V305h-.875c-.963 0-1.75.771-1.75 1.714v8.572c0 .943.787 1.714 1.75 1.714h10.5c.963 0 1.75-.771 1.75-1.714v-8.572c0-.943-.787-1.714-1.75-1.714zm-5.25 7.714c-.963 0-1.75-.771-1.75-1.714s.787-1.714 1.75-1.714 1.75.771 1.75 1.714-.787 1.714-1.75 1.714zm2.713-7.714h-5.426v-1.714c0-1.457 1.226-2.657 2.713-2.657s2.713 1.2 2.713 2.657V305z" transform="translate(-1036 -299)" fill="url(#a)" fill-rule="evenodd"/>
</svg>
