<svg width="20" height="20" xmlns="http://www.w3.org/2000/svg">
    <path d="M12.5 2.5A7.5 7.5 0 0 0 5 10a5 5 0 0 0 10 0 3.333 3.333 0 0 0-6.667 0 1.666 1.666 0 1 0 3.334 0H10a1.666 1.666 0 1 1 3.333 0 3.333 3.333 0 1 1-6.666 0 5 5 0 0 1 10 0v-.002V10a6.667 6.667 0 0 1-13.334 0v-.002V10C3.333 4.937 7.438.833 12.5.833a9.17 9.17 0 0 1 1.912.203A9.946 9.946 0 0 0 10 0C4.478 0 0 4.478 0 10c0 5.523 4.478 10 10 10 5.523 0 10-4.477 10-10 0-.259-.02-.513-.039-.767A7.5 7.5 0 0 0 12.5 2.5z" fill="#FF697B" fill-rule="nonzero"/>
</svg>
