<svg width="24" height="24" xmlns="http://www.w3.org/2000/svg">
    <path d="m17.625 7.593 2.811 4.47 2.759-4.384C23.713 9.02 24 10.476 24 12l-.002.07h-3.556l2.723 4.329c-.018.044-.035.09-.054.134h-11.11l2.815 4.475 2.81-4.465 2.621 4.169c-.11.105-.224.208-.338.31h-5.085l1.393 2.214A11.969 11.969 0 0 1 12 24c-1.485 0-2.905-.271-4.218-.764l1.394-2.215H4.09c-.115-.1-.228-.204-.339-.309l2.623-4.17 2.81 4.466 2.814-4.475H.889a10.315 10.315 0 0 1-.027-.067L.836 16.4l2.723-4.328H.002L0 12c0-1.524.287-2.98.805-4.321l2.759 4.384 2.812-4.47 2.812 4.47L12 7.593l2.812 4.47 2.813-4.47zm-2.818 4.478H9.193L12 16.533l2.806-4.462zM12 0c.293 0 .583.014.87.035l4.755 7.557H6.375L11.13.035C11.418.015 11.707 0 12 0zm8.302 3.339a12.015 12.015 0 0 1 2.86 4.253h-5.537zm-16.603 0 2.676 4.253H.84a12.022 12.022 0 0 1 2.86-4.254zM16.213.761a11.999 11.999 0 0 1 3.715 2.233h-5.12zm-8.425 0 1.405 2.234H4.072A12.002 12.002 0 0 1 7.788.762z" fill="#FF4A8D" fill-rule="nonzero"/>
</svg>
