<svg width="24" height="24" xmlns="http://www.w3.org/2000/svg">
    <path d="M23.306 15.988C21.661 20.652 17.228 24 12 24a11.93 11.93 0 0 1-7.018-2.28A5.996 5.996 0 0 1 10 19h4c3.473 0 6.681-1.124 9.306-3.012zm.5-6.086c.12.683.194 1.381.194 2.098 0 .278-.023.55-.042.824A13.95 13.95 0 0 1 14 17h-4a7.992 7.992 0 0 0-6.547 3.417c-.481-.49-.92-1.02-1.312-1.586A9.97 9.97 0 0 1 10 15h4c4.055 0 7.633-2.018 9.806-5.098zm-2.07-4.9c.507.706.948 1.463 1.294 2.272-1.604 3.38-5.039 5.725-9.03 5.725h-4c-3.54 0-6.712 1.543-8.908 3.98-.307-.67-.55-1.375-.732-2.106C2.874 12.48 6.265 11 10 11L14 11c3.718 0 6.842-2.554 7.736-5.996zM18 1.62a11.95 11.95 0 0 1 1.996 1.451C19.956 6.346 17.284 9 14 9h-4a15.908 15.908 0 0 0-9.974 3.51C.02 12.34 0 12.172 0 12c0-.709.073-1.398.191-2.073A17.88 17.88 0 0 1 10 7l4-.001c2.206 0 4-1.795 4-4zM12 0c1.406 0 2.747.254 4 .697v2.301A2.003 2.003 0 0 1 14 5h-4a19.83 19.83 0 0 0-8.97 2.15C2.895 2.94 7.103 0 12 0z" fill="#3099F2" fill-rule="nonzero"/>
</svg>
