<svg width="24" height="24" xmlns="http://www.w3.org/2000/svg">
    <path d="M23.337 13.733c.422.92.663 1.939.663 3.017a7.25 7.25 0 0 1-14.5 0c0-1.078.241-2.097.663-3.017A9.217 9.217 0 0 0 16.75 16.5a9.217 9.217 0 0 0 6.587-2.767zM7.25 9.5c1.078 0 2.097.241 3.016.663A9.22 9.22 0 0 0 7.5 16.75a9.22 9.22 0 0 0 2.766 6.587A7.205 7.205 0 0 1 7.25 24a7.25 7.25 0 0 1 0-14.5zm9.5-9.5a7.25 7.25 0 0 1 0 14.5 7.212 7.212 0 0 1-3.017-.663A9.217 9.217 0 0 0 16.5 7.25 9.217 9.217 0 0 0 13.733.663 7.213 7.213 0 0 1 16.75 0zm-9.5 0a7.25 7.25 0 0 1 7.25 7.25 7.204 7.204 0 0 1-.663 3.016A9.22 9.22 0 0 0 7.25 7.5a9.22 9.22 0 0 0-6.587 2.766A7.205 7.205 0 0 1 0 7.25 7.25 7.25 0 0 1 7.25 0z" fill="#F6C343" fill-rule="nonzero"/>
</svg>
