<svg width="800" height="569" viewBox="0 0 800 569" xmlns="http://www.w3.org/2000/svg">
    <defs>
        <linearGradient x1="61.07%" y1="27.546%" x2="50%" y2="100%" id="a">
            <stop stop-color="#090A1A" stop-opacity=".391" offset="0%"/>
            <stop stop-color="#1B1E2D" offset="100%"/>
        </linearGradient>
        <linearGradient x1="50.013%" y1="99.918%" x2="61.07%" y2="27.546%" id="b">
            <stop stop-color="#161726" offset="0%"/>
            <stop stop-color="#1B1E2D" offset="100%"/>
        </linearGradient>
        <linearGradient x1="61.07%" y1="27.546%" x2="50%" y2="100%" id="c">
            <stop stop-color="#181928" offset="0%"/>
            <stop stop-color="#1B1E2D" offset="100%"/>
        </linearGradient>
        <linearGradient x1="50%" y1="100%" x2="61.114%" y2="27.546%" id="d">
            <stop stop-color="#090A1A" stop-opacity=".391" offset="0%"/>
            <stop stop-color="#1B1E2D" offset="100%"/>
        </linearGradient>
        <linearGradient x1="23.104%" y1="44.397%" x2="52.329%" y2="52.153%" id="e">
            <stop stop-opacity="0" offset="0%"/>
            <stop stop-color="#43434F" stop-opacity=".4" offset="100%"/>
        </linearGradient>
    </defs>
    <g fill="none" fill-rule="evenodd">
        <g transform="translate(141.444 58.168)" fill-rule="nonzero">
            <ellipse fill="url(#a)" cx="27.778" cy="27.832" rx="27.778" ry="27.832"/>
            <ellipse fill="url(#b)" cx="567.444" cy="42.141" rx="27.778" ry="27.832"/>
            <ellipse fill="url(#c)" cx="474.111" cy="307.102" rx="16.667" ry="16.699"/>
            <circle fill="url(#d)" cx="384" cy="337" r="30"/>
        </g>
        <path d="M398.951 303.953c-.469-1.147-1.631-1.724-2.596-1.287-.964.436-1.365 1.72-.896 2.868.47 1.148 1.632 1.725 2.597 1.288.964-.436 1.364-1.72.895-2.869zm42.522-43.641c-.46.008-.829.511-.823 1.126.006.614.383 1.106.843 1.098.46-.008.828-.512.822-1.126-.006-.614-.383-1.106-.842-1.098zm-194.981.277c-.5-.405-1.192-.361-1.545.1-.354.46-.233 1.164.268 1.57.501.405 1.194.36 1.547-.1.352-.461.232-1.164-.27-1.57zm282.717-1.622c-.378-.433-1.077-.431-1.558.004-.483.436-.566 1.14-.188 1.573.378.433 1.076.432 1.558-.004.482-.435.567-1.14.188-1.573zm-140.917-3.507c-.292-.211-.817-.202-1.172.02-.354.224-.405.576-.112.787.293.211.817.202 1.171-.02.355-.224.406-.576.113-.787zm-203.53-3.701c-.17-.603-.786-.996-1.375-.879-.588.118-.927.702-.756 1.305.171.603.787.996 1.375.878s.928-.702.756-1.304zm449.113-2.007c-.301-.026-.59.075-.64.227-.053.15.15.294.452.32.302.027.589-.075.64-.226.054-.151-.15-.295-.452-.321zm64.378-13.713a1.108 1.108 0 0 0-1.549.25 1.11 1.11 0 1 0 1.8 1.303 1.114 1.114 0 0 0-.251-1.553zm-397.569-2.254c-.268-.575-.932-.863-1.484-.645-.55.218-.78.86-.512 1.434s.933.863 1.484.644c.552-.218.78-.86.512-1.433zM1.096 223.615A1.11 1.11 0 0 0 0 224.741a1.11 1.11 0 1 0 2.22-.028 1.11 1.11 0 0 0-1.124-1.098zm41.89-5.004c-1.073.012-1.931.768-1.918 1.69.015.92.895 1.658 1.967 1.646 1.073-.012 1.931-.767 1.918-1.688-.014-.922-.894-1.66-1.967-1.648zm556.089-1.668c-.46.008-.824.262-.812.57.012.306.392.55.852.542.46-.008.823-.262.812-.57-.011-.306-.393-.55-.852-.542zm-401.232-.305c-.328-.215-.854-.21-1.176.008-.323.22-.317.572.012.787.328.215.855.21 1.176-.008.323-.22.317-.572-.012-.787zm432.263-4.594c-.372-.18-.892-.124-1.162.126-.269.248-.185.596.187.776.374.18.894.124 1.162-.125.27-.25.185-.597-.187-.777zm-493.308.451a.277.277 0 0 0-.273.281.277.277 0 0 0 .28.275.277.277 0 0 0 .272-.282.277.277 0 0 0-.28-.274zm203.106-6.672c-.766.01-1.379.64-1.37 1.408a1.388 1.388 0 1 0 2.775-.036 1.389 1.389 0 0 0-1.405-1.372zm405.982-1.112a1.11 1.11 0 0 0-1.11 1.112 1.11 1.11 0 1 0 2.22 0c0-.614-.497-1.112-1.11-1.112zM87.78 203.047c-.302-.026-.589.075-.64.227-.053.151.15.295.452.32.301.027.59-.074.64-.226.053-.151-.15-.295-.452-.321zm467.838-3.227c-.412-.27-.911-.041-1.113.51-.203.552-.031 1.218.381 1.487.414.27.912.042 1.113-.51.203-.551.032-1.217-.381-1.487zm-157.758.622c-.133-.143-.465-.216-.742-.161-.275.054-.389.215-.255.358.134.144.466.216.741.162.276-.055.391-.215.256-.36zm95.269-7.337c-.107-.03-.21.038-.229.152a.238.238 0 0 0 .161.263c.108.03.21-.037.229-.152a.238.238 0 0 0-.161-.263zm-242.74-1.163a.503.503 0 0 0-.642.393.613.613 0 0 0 .452.68c.3.08.59-.095.641-.392a.614.614 0 0 0-.451-.681zm-33.13-8.36-.062.006c-.143.029-.225.175-.184.326.041.15.192.249.335.22.143-.03.226-.176.184-.327-.041-.15-.191-.249-.335-.22zm278.983-1.102c-.302-.04-.59.048-.641.196-.053.149.148.301.45.34.302.04.59-.047.643-.196.052-.148-.15-.3-.452-.34zm-48.704-3.88-.06.018c-.116.054-.162.204-.102.336.06.131.204.195.32.14.117-.053.162-.203.101-.335-.059-.131-.203-.195-.32-.14zm-402.375-2.14c-.373-.18-.893-.124-1.162.125-.27.248-.186.596.186.776.373.18.894.124 1.163-.125.27-.249.186-.597-.187-.777zm247.5-5.062c-.604-.199-1.18.24-1.284.982-.106.741.298 1.503.902 1.702.604.2 1.178-.24 1.284-.981.105-.741-.3-1.504-.903-1.703zm-271.69 1.171c-.19-.12-.538-.142-.78-.048-.242.095-.285.27-.097.39.189.121.538.143.78.048.24-.094.284-.269.096-.39zm164.107-1.775a.276.276 0 0 0-.272.282.277.277 0 0 0 .28.274.277.277 0 0 0 .272-.281.277.277 0 0 0-.28-.275zm421.785-3.336c-.766 0-1.388.622-1.388 1.39a1.389 1.389 0 1 0 2.775 0c0-.768-.62-1.39-1.387-1.39zm-352.266-.517c-.453-.16-.884.192-.963.784-.079.593.225 1.204.677 1.363.453.16.883-.192.963-.786.079-.592-.224-1.202-.677-1.361zm310.643-1.15c-.46 0-.833.498-.833 1.111 0 .615.373 1.112.833 1.112.46 0 .832-.497.832-1.112 0-.613-.372-1.112-.832-1.112zM65.16 159.695l-.06.018c-.117.053-.162.204-.103.336.06.13.204.194.32.14.117-.053.163-.204.102-.335-.06-.132-.203-.195-.32-.141zm624.118-14.478c-1.226 0-2.22.871-2.22 1.946s.994 1.946 2.22 1.946c1.226 0 2.22-.871 2.22-1.946s-.994-1.946-2.22-1.946zm-266.699 1.696c-.275-.067-.608-.01-.743.128-.134.138-.02.304.255.371.275.068.608.01.742-.127.135-.138.02-.304-.254-.372zm-23.672-3.283c-.189-.109-.538-.108-.779 0-.24.11-.283.285-.094.394.19.108.538.108.78 0 .24-.11.283-.286.093-.394zm-209.106-3.417c-.307 0-.556.124-.556.278 0 .153.249.278.556.278.307 0 .554-.125.554-.278 0-.154-.247-.278-.554-.278zm294.375-1.112-.123.01c-.45.06-.743.352-.656.653.09.301.528.498.979.438.451-.06.744-.352.655-.652-.09-.302-.526-.498-.978-.439zm-332.956-.498-.051.01c-.102.039-.158.163-.125.278.034.116.144.178.247.14.102-.037.157-.161.124-.277-.034-.115-.143-.178-.246-.14zm-121.928-1.677a.277.277 0 1 0-.315.457.277.277 0 1 0 .315-.457zm39.961-6.058c-.187-.122-.537-.143-.778-.049-.242.095-.285.27-.097.39.189.122.538.143.78.049.24-.095.284-.27.095-.39zm429.946-.663c-.46 0-.833.249-.833.556 0 .306.373.556.833.556.46 0 .832-.25.832-.556 0-.307-.373-.556-.832-.556zm97.684.016-.053.005c-.126.028-.209.165-.184.307.025.142.148.235.274.206.125-.027.207-.165.182-.307-.024-.142-.146-.234-.272-.206zm45.546-3.348a.278.278 0 0 0-.094.548.278.278 0 0 0 .094-.548zm-378.94-.405c-.081-.088-.217-.105-.302-.037-.086.068-.09.194-.007.282.082.089.217.105.303.037.085-.067.088-.194.006-.282zm25.971-.642c-.25-.102-.597-.09-.773.024-.176.116-.117.292.134.393.25.102.597.09.773-.025.177-.115.117-.29-.134-.392zm74.877-.625c-.137.001-.246.128-.244.281.001.154.113.277.25.274.136-.001.246-.128.244-.281-.002-.154-.114-.276-.25-.274zm-19.783-1.569c-.088-.092-.246-.089-.352.01-.106.098-.122.253-.034.346.088.094.245.09.352-.009.106-.098.121-.254.034-.347zm120.84-1.159c-.25-.09-.597-.062-.776.063-.18.124-.124.298.125.388.248.09.595.062.774-.063.18-.124.124-.298-.124-.388zm-339.984-5.057a1.111 1.111 0 0 0 .027 2.224 1.111 1.111 0 0 0-.027-2.224zM5.263 114.696l-.052.01c-.102.038-.157.163-.124.278.034.116.144.178.247.14.101-.038.157-.162.123-.277-.033-.116-.143-.178-.246-.14zm363.151-4.758c-.207-.274-.708-.383-1.119-.245-.41.138-.574.473-.368.747.208.274.709.384 1.12.245.41-.138.574-.472.367-.747zm-158.922-.86c-.46.003-.828.256-.821.562.004.307.383.553.842.55.46-.005.828-.257.822-.563-.006-.308-.384-.553-.843-.55zm98.512 0c-.307.001-.552.127-.548.28.003.154.255.277.562.275.307-.002.551-.128.548-.281-.005-.154-.256-.277-.562-.275zm175.379-5.005c-.307 0-.555.124-.555.278 0 .153.248.278.555.278.307 0 .555-.125.555-.278 0-.154-.248-.278-.555-.278zm-73.98-2.195c-.123-.068-.271-.011-.331.127s-.01.304.113.372c.122.067.271.01.331-.128s.01-.304-.113-.371zm118.18-5.033-.112.007c-.46.05-.817.336-.8.64.02.302.406.508.866.458.458-.05.816-.336.798-.639-.018-.302-.405-.508-.864-.459zm35.793-2.778-.121.013c-.613.099-1.09.67-1.065 1.276.024.607.54 1.018 1.153.918.613-.099 1.09-.67 1.065-1.277-.024-.605-.54-1.016-1.153-.917zM167.88 92.953c-.46 0-.833.249-.833.556 0 .307.373.556.833.556.46 0 .832-.249.832-.556 0-.307-.372-.556-.832-.556zm42.291.101c-.086-.07-.207-.049-.27.05a.237.237 0 0 0 .044.304c.086.07.207.049.27-.049a.236.236 0 0 0-.044-.305zm219.38-3.993c-.307 0-.556.124-.556.278 0 .153.25.278.555.278.307 0 .555-.125.555-.278 0-.154-.248-.278-.555-.278zm-191.483-5.532c-.437-.096-.907.062-1.052.353-.144.292.093.606.53.702.435.097.906-.061 1.05-.352.145-.292-.091-.606-.528-.703zm560.504-1.463c-.207-.904-1.229-1.492-2.281-1.313-1.053.178-1.738 1.055-1.53 1.958.207.904 1.228 1.492 2.28 1.314 1.053-.178 1.738-1.055 1.53-1.959zm-513.926-11.73c-.134-.144-.466-.216-.742-.161-.275.054-.39.215-.256.358.134.144.467.216.742.161.275-.054.39-.215.256-.358zM64.075 65.709c-1.073.011-1.932.768-1.918 1.689.014.92.894 1.658 1.967 1.646 1.072-.011 1.93-.768 1.918-1.689-.014-.92-.894-1.658-1.967-1.646zm203.281-1.548a.18.18 0 0 0-.275.004.24.24 0 0 0 .003.31.18.18 0 0 0 .276-.002.24.24 0 0 0-.004-.312zm466.098-8.875a1.39 1.39 0 0 0-1.22 2.496c.689.338 1.519.053 1.856-.637a1.39 1.39 0 0 0-.636-1.859zm-544.588.985c-.291-.049-.605.03-.701.176-.097.146.06.303.352.351.29.049.604-.03.702-.176.095-.146-.063-.303-.353-.351zm334.964-2.122c-.146-.125-.483-.154-.752-.065-.27.088-.37.262-.225.387.146.126.482.155.752.066.269-.089.37-.263.225-.388zm74.194-2.384c-.554-.96-1.887-1.344-2.982-.86-1.094.485-1.533 1.656-.98 2.615.553.959 1.887 1.343 2.982.859 1.094-.485 1.533-1.655.98-2.614zm-201.46.601a.277.277 0 1 0-.07.552.277.277 0 1 0 .07-.552zm278.603-4.126c-.378-.433-1.076-.432-1.558.004-.483.435-.566 1.14-.188 1.573.379.433 1.076.431 1.559-.004.482-.436.566-1.14.187-1.573zm-350.916-.88-.12.011c-.438.061-.68.354-.541.655.138.301.607.496 1.046.435.437-.06.68-.354.54-.654-.14-.301-.607-.496-1.045-.436zM95.22 44.193c-.322-.22-.848-.224-1.178-.01-.329.214-.336.566-.015.786.322.22.848.225 1.176.01.33-.214.337-.566.017-.786zm129.487-1.28-.11.006c-.292.03-.454.176-.361.327.093.15.405.248.697.218.292-.03.453-.177.36-.328-.092-.15-.404-.248-.696-.217zm-86.518-5.004a1.11 1.11 0 1 0 .001 2.222 1.11 1.11 0 0 0 0-2.222zm321.091-2.267c-.553-.96-1.887-1.344-2.982-.86-1.094.485-1.533 1.655-.98 2.614.553.96 1.888 1.344 2.982.86 1.095-.485 1.533-1.655.98-2.614zm-275.258-7.133c-.248-.09-.596-.061-.774.063-.18.124-.125.298.124.388.248.09.596.062.775-.062.179-.125.123-.299-.125-.389zM276.168 8.8c-.483-.822-1.651-1.152-2.61-.737-.956.415-1.34 1.419-.856 2.24.483.822 1.651 1.152 2.608.737.958-.415 1.343-1.418.858-2.24zm49.926-5.147c-.318-.243-.844-.29-1.177-.103-.332.187-.344.536-.026.78.317.243.845.29 1.177.103.332-.187.344-.536.026-.78zm-228.576.423a.987.987 0 0 0-.785-.006c-.22.108-.224.284-.01.393.214.11.566.113.785.006.22-.108.224-.284.01-.393zm294.378-2.587c-.502-.406-1.194-.362-1.546.1-.353.46-.233 1.163.268 1.568.501.407 1.194.362 1.547-.099.352-.46.233-1.163-.27-1.569zM587.43.655c-.46.008-.828.512-.823 1.126.007.615.384 1.106.843 1.098.46-.007.828-.512.822-1.125-.006-.615-.383-1.106-.842-1.099z" fill="#FFF" opacity=".1"/>
        <path d="M357.691 565.775a.833.833 0 1 1-.022 1.667.833.833 0 0 1 .022-1.667zm195.536.208c.5-.304 1.192-.27 1.545.075.353.345.233.873-.268 1.177-.502.305-1.194.271-1.547-.075-.353-.345-.232-.872.27-1.177zm-283.272-2.189c.378-.325 1.076-.324 1.558.003.482.326.566.855.188 1.18-.378.324-1.077.323-1.558-.003-.483-.327-.567-.855-.188-1.18zm140.917-4.462c.292-.317.817-.303 1.171.03.355.336.406.863.113 1.18-.293.317-.818.303-1.172-.031-.355-.335-.405-.862-.112-1.18zm-310.516-2.85c.496-.27 1.189-.186 1.549.187.36.373.248.894-.25 1.164-.496.27-1.19.186-1.55-.187-.358-.373-.247-.895.25-1.165zm514.045-.928c.171-.603.786-.995 1.375-.878.589.118.927.702.757 1.304-.172.603-.787.996-1.375.878-.589-.117-.928-.701-.757-1.304zm-449.437-1.999a.832.832 0 0 1 .96.681.833.833 0 1 1-.96-.68zm333.515-18.378c.268-.431.932-.647 1.484-.484.55.164.78.646.512 1.076-.268.43-.933.647-1.484.483-.551-.164-.78-.645-.512-1.075zm300.144-9.99c.612.005 1.104.384 1.095.844-.007.46-.51.83-1.123.824-.613-.006-1.105-.385-1.096-.845.007-.46.51-.83 1.124-.823zm-42.164-6.116a2.222 2.222 0 0 1 2.191 2.252 2.222 2.222 0 0 1-2.247 2.195 2.222 2.222 0 0 1-2.192-2.25 2.222 2.222 0 0 1 2.248-2.197zm-556.925-2.224a.833.833 0 1 1-.043 1.669.833.833 0 0 1 .043-1.67zm462.832-5.56c.152.005.274.382.272.843-.002.46-.126.83-.28.824-.152-.006-.274-.384-.272-.845.002-.46.128-.829.28-.823zm-493.309.158a.831.831 0 0 1 1.163.188.832.832 0 1 1-1.35.976.835.835 0 0 1 .187-1.164zm289.647-7.387c.766.012 1.38.768 1.37 1.69-.009.92-.638 1.658-1.404 1.646-.767-.012-1.38-.768-1.37-1.689.008-.92.638-1.658 1.404-1.647zm-405.981-.556c.613 0 1.11.374 1.11.835 0 .46-.497.833-1.11.833-.613 0-1.11-.373-1.11-.833 0-.461.497-.835 1.11-.835zm658.89-2.212a.832.832 0 0 1 .962.681.831.831 0 1 1-1.64.283.833.833 0 0 1 .679-.964zm63.592-2.634c.497-.27 1.19-.186 1.55.187.358.374.247.895-.25 1.165s-1.19.186-1.55-.188c-.358-.373-.248-.894.25-1.164zm-374.428.38c.2-.43.698-.647 1.113-.483.413.163.583.644.382 1.074-.201.432-.698.648-1.111.485-.414-.164-.587-.645-.384-1.076zm-157.231-.453a.834.834 0 0 1 .731 1.498.834.834 0 0 1-.731-1.498zm486.476-1.185c.15-.077.293.227.319.681.026.453-.075.886-.225.963-.15.078-.292-.226-.318-.681-.027-.453.074-.884.224-.963zm-423.987-6.613c.107-.031.21.037.228.151a.238.238 0 0 1-.16.263c-.108.031-.21-.037-.23-.151a.238.238 0 0 1 .162-.263zm243.525-1.71c.453-.12.883.144.963.589.078.444-.224.902-.678 1.02-.452.121-.884-.142-.963-.587-.078-.446.225-.903.678-1.022zm32.922-10.036.04.014c.143.088.225.527.184.978-.042.452-.192.747-.335.66-.144-.089-.227-.527-.185-.979.042-.452.192-.747.336-.659zm-279.885-.528c.453-.12.884.144.962.589.079.445-.223.901-.676 1.021-.453.12-.885-.144-.965-.59-.077-.444.226-.9.679-1.02zm268.197-1.133.048.005c.095.028.15.17.123.316-.029.147-.128.242-.224.214-.096-.029-.15-.17-.123-.317.028-.146.128-.242.224-.213zm-219.168-2.21.06.017c.116.054.161.205.101.336-.06.132-.203.195-.32.141-.116-.054-.162-.204-.1-.336.059-.131.202-.194.319-.14zm402.93-2.645a.835.835 0 0 1 .976 1.352.834.834 0 0 1-.976-1.352zm-247.5-5.104c.604-.239 1.179.288 1.284 1.178.106.89-.298 1.804-.902 2.043-.605.24-1.179-.288-1.285-1.178-.104-.89.3-1.804.903-2.043zm154.567 1.018c.211-.427.713-.631 1.121-.458.409.174.569.662.358 1.088-.212.426-.714.63-1.122.457-.408-.175-.568-.66-.357-1.087zm117.181-1.31a.833.833 0 1 1 1.314 1.026.831.831 0 0 1-1.168.144.837.837 0 0 1-.146-1.17zm-164.72-1.433c.151.006.274.383.271.843-.001.46-.126.83-.279.825-.152-.006-.275-.385-.272-.846.002-.46.127-.828.28-.822zm-421.786-3.892c.767 0 1.388.746 1.388 1.668 0 .921-.621 1.668-1.388 1.668-.766 0-1.387-.747-1.387-1.668 0-.922.621-1.668 1.387-1.668zm352.267.028c.452-.12.884.145.963.589.078.445-.225.902-.678 1.022-.452.12-.883-.144-.962-.59-.08-.444.224-.901.677-1.02zm-310.643-1.697a.833.833 0 1 1-.002 1.667.833.833 0 0 1 .002-1.667zm223.608-2.705.055.001a.237.237 0 0 1 .2.236c-.004.111-.1.186-.216.169a.24.24 0 0 1-.2-.236c.004-.11.102-.186.216-.169zm228.553-1.714c.453-.12.884.144.963.59.08.444-.222.903-.675 1.02-.453.12-.886-.143-.965-.589-.078-.443.224-.901.677-1.02zm-243.006-.584.104.01c.46.074.816.504.798.958-.02.455-.405.764-.864.688-.458-.074-.817-.503-.8-.957.02-.454.407-.763.866-.689zm291.481-2.202.06.017c.117.053.162.204.102.336-.06.131-.204.195-.32.14-.117-.053-.162-.203-.102-.335.06-.131.203-.195.32-.14zm-103.432-3.21c.126-.263.3-.168.386.212.087.38.055.898-.071 1.16-.126.261-.299.166-.386-.212-.087-.38-.055-.9.071-1.16zm-521.796-12.38c1.226 0 2.22.995 2.22 2.223a2.222 2.222 0 0 1-2.22 2.224 2.222 2.222 0 0 1-2.22-2.224c0-1.228.994-2.224 2.22-2.224zm535.284 2.223c.46.006.828.385.822.844a.832.832 0 1 1-1.665-.02.834.834 0 0 1 .843-.824zm-267.875-1.027a.832.832 0 1 1 .732 1.498.835.835 0 0 1-.733-1.498zm186.414-2.307.102.014c.44.088.694.526.566.978-.128.452-.59.747-1.031.658-.44-.088-.695-.525-.568-.978.13-.452.591-.747 1.033-.658zm-163.949-.871c.284-.325.807-.324 1.17.003.36.326.424.854.14 1.18-.285.324-.807.322-1.169-.003-.361-.327-.424-.855-.14-1.18zm137.742.39.057.004a.179.179 0 0 1 .14.237.242.242 0 0 1-.27.157.179.179 0 0 1-.139-.237.24.24 0 0 1 .269-.157zm89.758-.508a.18.18 0 0 1 .276-.004.24.24 0 0 1 .004.31.18.18 0 0 1-.276.005.24.24 0 0 1-.004-.311zm-17.065-3.461a.833.833 0 1 1 0 1.666.833.833 0 0 1 0-1.666zm-295.507-.995a.832.832 0 1 1 1.633.322.833.833 0 1 1-1.634-.322zm333.81-1.17.052.01c.102.038.157.163.124.278-.034.115-.144.178-.246.14-.102-.038-.158-.162-.124-.278.033-.115.143-.178.246-.14zm122.483-2.136c.126-.26.3-.166.386.214.087.38.055.898-.07 1.159-.127.262-.3.167-.387-.213-.087-.38-.055-.898.071-1.16zm-39.902-5.942a.831.831 0 0 1 1.168-.145.835.835 0 0 1 .145 1.171.831.831 0 0 1-1.169.144.835.835 0 0 1-.144-1.17zm-430.56-.877a.834.834 0 0 1 0 1.668.834.834 0 0 1 0-1.668zm-97.684.572.054.005c.126.028.208.166.183.307-.025.143-.148.235-.273.207-.126-.028-.207-.166-.183-.308.025-.142.147-.234.273-.206zm323.699-2.234c.608-.057 1.162.267 1.24.724.075.457-.356.874-.964.931-.608.058-1.163-.266-1.239-.723-.077-.457.354-.874.963-.932zm29.086-.104a.831.831 0 0 1 1.118-.368c.411.208.575.71.368 1.12a.833.833 0 0 1-1.486-.751zm-398.33-1.558c.15-.078.292.226.318.68.026.454-.075.886-.224.964-.151.077-.293-.227-.32-.681-.025-.453.075-.884.225-.963zm379.494-.969c.082-.088.217-.105.303-.037.085.068.089.194.007.282-.082.089-.218.105-.303.038-.085-.068-.088-.194-.007-.283zm259.761-3.22c.352-1.136 1.189-1.682 1.87-1.218.68.464.946 1.762.594 2.899-.351 1.137-1.188 1.682-1.87 1.219-.68-.464-.946-1.762-.594-2.9zM509.82 414.75c.376-.304.896-.27 1.16.073.264.346.175.874-.2 1.178-.377.305-.897.272-1.16-.074-.266-.345-.176-.873.2-1.177zm-75.55.348c.137.001.247.128.245.281-.002.154-.114.277-.25.275-.137-.002-.246-.128-.245-.282.002-.153.114-.276.25-.274zm20.34-1.568c.087-.093.244-.09.35.01.107.097.122.253.034.345-.087.094-.245.09-.351-.008-.107-.099-.122-.255-.034-.347zm-121.28-1.61a.832.832 0 1 1 .974 1.351.83.83 0 0 1-1.16-.186.835.835 0 0 1 .185-1.166zm220.818-2.366c.128.003.23.123.227.268-.004.145-.11.259-.239.255-.128-.003-.23-.123-.226-.268.003-.144.11-.259.238-.255zm120.16-2.24c.613.005 1.104.384 1.096.844-.009.46-.51.829-1.123.824-.614-.006-1.104-.385-1.097-.845.01-.46.512-.83 1.124-.823zm120.703-3.278.051.01c.103.039.158.163.124.278-.033.116-.143.178-.246.14-.102-.037-.158-.162-.124-.277.034-.116.143-.178.246-.14zm-20.683.066a.18.18 0 0 1 .275-.004.24.24 0 0 1 .004.311.18.18 0 0 1-.276.004.239.239 0 0 1-.003-.31zm-343.578-5.227a.832.832 0 1 1 1.486.753.832.832 0 1 1-1.486-.753zm159.477-1.014a.833.833 0 0 1 .821.845.832.832 0 1 1-1.665-.02.834.834 0 0 1 .844-.825zm-98.23-.555c.458.005.827.383.82.844a.832.832 0 1 1-1.664-.021.834.834 0 0 1 .843-.823zm116.505-4.21a.834.834 0 0 1 1.165 1.192.834.834 0 0 1-1.165-1.192zm-292.444-1.35a.834.834 0 1 1-.002 1.669.834.834 0 0 1 .002-1.67zm73.703-2.196c.123-.068.27-.01.331.127.06.138.009.304-.113.372-.123.067-.272.01-.331-.128-.06-.137-.01-.304.113-.371zm-118.173-5.032.105.01c.46.074.817.503.799.958-.02.455-.406.763-.866.688-.458-.074-.816-.503-.798-.957.018-.455.406-.763.865-.689zm-35.254-3.336.13.01c.612.074 1.089.503 1.064.958-.024.455-.54.763-1.153.688-.612-.074-1.089-.503-1.065-.958.025-.454.541-.762 1.154-.688zm395.505-1.669a.833.833 0 1 1-.002 1.667.833.833 0 0 1 .002-1.667zm-42.292.657c.087-.07.208-.048.27.05a.237.237 0 0 1-.043.304c-.087.07-.208.049-.27-.049a.236.236 0 0 1 .043-.305zm-219.656-5.105a.834.834 0 0 1 0 1.668.834.834 0 0 1 0-1.668zm16.094 0c.137 0 .247.125.247.278 0 .153-.11.278-.247.278s-.247-.125-.247-.278c0-.153.11-.278.247-.278zM.042 367.962a2.219 2.219 0 1 1 4.355.86 2.219 2.219 0 1 1-4.355-.86zm561.053 1.028a.834.834 0 1 1 .52 1.583.834.834 0 0 1-.52-1.583zm156.967-1.562c.505-.262 1.195-.167 1.544.213.348.379.221.898-.284 1.16-.504.261-1.196.166-1.544-.214-.347-.38-.22-.898.284-1.16zM668.97 353.88c.536-1.29 1.865-1.94 2.967-1.448 1.102.49 1.56 1.936 1.024 3.227-.537 1.29-1.865 1.94-2.968 1.449-1.102-.491-1.56-1.936-1.023-3.228zm-154.424.593c.202-.43.7-.646 1.113-.483.414.164.586.646.384 1.075-.2.431-.7.648-1.113.484-.411-.163-.585-.645-.384-1.076zm221.38-4.985a2.221 2.221 0 0 1 2.191 2.252 2.221 2.221 0 0 1-2.247 2.196 2.224 2.224 0 0 1 .056-4.448zm-468.882 2.02c.218-.376.722-.465 1.127-.198.406.266.556.787.338 1.163-.218.375-.724.463-1.129.197s-.554-.788-.336-1.162zm265.32-2.455a.18.18 0 0 1 .275.003.24.24 0 0 1-.003.31.18.18 0 0 1-.276-.002.24.24 0 0 1 .003-.311zM65.71 337.982c.688-.405 1.519-.063 1.855.765.337.827.052 1.826-.635 2.23-.69.405-1.52.063-1.857-.764-.336-.828-.052-1.826.637-2.231zm544.223.984a.83.83 0 0 1 1.051.53.832.832 0 1 1-1.051-.53zm-96.365.583c.102-.038.213.024.246.14.034.115-.021.24-.123.277-.103.038-.213-.024-.247-.139-.034-.116.022-.24.124-.278zm-238.756-3.055c.22-.375.723-.463 1.128-.197.405.266.555.787.338 1.164-.22.375-.724.463-1.129.196-.403-.266-.555-.787-.337-1.163zm-73.672-2.465a2.218 2.218 0 0 1 2.982-.982 2.226 2.226 0 0 1 .98 2.987 2.218 2.218 0 0 1-2.982.982 2.226 2.226 0 0 1-.98-2.987zm201.46.453c.152-.057.29.267.31.724.02.457-.09.873-.241.93-.152.06-.291-.266-.31-.722-.02-.457.088-.875.24-.932zm100.88.048a1.11 1.11 0 1 1 1.983 1.003 1.108 1.108 0 0 1-1.491.49 1.114 1.114 0 0 1-.491-1.493zm-380.039-4.816c.379-.325 1.076-.324 1.559.003.482.327.566.855.187 1.18-.378.324-1.076.323-1.558-.003-.482-.327-.566-.855-.188-1.18zm351.481-.241.11.015c.438.091.682.53.542.982-.139.451-.607.744-1.046.653-.437-.091-.68-.531-.54-.982.139-.451.606-.744 1.044-.653zm229.577-3.086a.832.832 0 0 1 1.178-.015c.328.322.336.85.014 1.18a.834.834 0 0 1-1.192-1.165zm-129.126-1.918.11.015c.438.091.68.53.542.981-.14.453-.608.745-1.046.653-.438-.09-.68-.53-.541-.981.139-.451.607-.744 1.046-.653zm85.601-4.45c.614 0 1.11.373 1.11.834 0 .46-.496.834-1.11.834-.612 0-1.11-.373-1.11-.834 0-.46.498-.834 1.11-.834zm-321.09-3.782a2.217 2.217 0 0 1 2.981-.982 2.225 2.225 0 0 1 .98 2.987 2.217 2.217 0 0 1-2.981.982 2.224 2.224 0 0 1-.98-2.987zm275.928-8.293a.834.834 0 1 1-.188 1.165.836.836 0 0 1 .188-1.165zm-92.786-21.176a2.217 2.217 0 0 1 2.981-.982 2.225 2.225 0 0 1 .98 2.987 2.218 2.218 0 0 1-2.981.983 2.224 2.224 0 0 1-.98-2.988zm179.254-5.417a.832.832 0 1 1 1.191 1.163.83.83 0 0 1-1.176.016.834.834 0 0 1-.015-1.18zm-229.21-.482c.317-.365.843-.435 1.176-.154.333.28.344.803.026 1.169-.317.365-.844.434-1.176.155-.333-.281-.345-.804-.027-1.17zm-65.802-2.342c.501-.305 1.193-.272 1.546.074.353.345.232.873-.269 1.177-.5.305-1.193.271-1.546-.074-.353-.346-.233-.873.269-1.177zm-195.535-.765a.833.833 0 1 1-.022 1.667.833.833 0 0 1 .022-1.667zm309.063-4.122c.319-.365.846-.433 1.178-.154.332.281.345.803.026 1.17-.318.365-.845.435-1.177.155-.332-.28-.343-.806-.027-1.17zm-255.328-1.765c.292-.317.818-.302 1.172.031.354.335.406.863.112 1.18-.292.316-.818.302-1.172-.032-.354-.335-.404-.862-.112-1.18zm254.286-8.013a.834.834 0 0 1-.04 1.668.834.834 0 0 1 .04-1.668z" fill="url(#e)" transform="translate(0 .655)"/>
    </g>
</svg>
