<svg width="21" height="20" xmlns="http://www.w3.org/2000/svg" xmlns:xlink="http://www.w3.org/1999/xlink">
    <defs>
        <path id="a" d="M0 0h19.849v19.377H0z"/>
        <path id="c" d="M0 0h12.982v9.814H0z"/>
    </defs>
    <g fill="none" fill-rule="evenodd">
        <g transform="translate(.933)">
            <mask id="b" fill="#fff">
                <use xlink:href="#a"/>
            </mask>
            <path d="m8.384 13.22.172.014c.202.061.408.04.614.04.086.045.173.035.26.01l.656-.02c.089.008.177.016.26-.024.252-.008.5-.035.744-.104.092.015.175-.028.263-.043.313-.057.623-.126.918-.25a.752.752 0 0 0 .303-.095c.395-.119.773-.28 1.134-.481.176-.051.327-.151.48-.248.045-.022.093-.039.137-.065a12.345 12.345 0 0 0 3.005-2.449c.293-.327.291-.329-.031-.646-.042-.061-.077-.128-.145-.166a1.182 1.182 0 0 0-.252-.268l-.13-.13a1.635 1.635 0 0 0-.305-.307l-.183-.173c-.084-.106-.192-.184-.299-.263l-.142-.122a1.556 1.556 0 0 0-.338-.271.205.205 0 0 0-.12-.09 1.762 1.762 0 0 0-.41-.302l-.128-.09c-.1-.07-.207-.134-.3-.213-.123-.103-.203-.07-.308.04-.346.36-.695.722-1.063 1.06-.235.215-.4.423-.262.757.03.07.017.158.023.237l.002.221a4.67 4.67 0 0 1-.148.785l-.144.343c-.289.52-.696.925-1.208 1.226l-.39.162a5.866 5.866 0 0 1-.787.15c-.073 0-.146 0-.22-.002l-.566-.082c-.089-.037-.133.032-.183.081-.514.514-1.028 1.027-1.541 1.542-.033.033-.103.06-.073.118.025.048.09.035.14.033l.565.085M0 18.115c.039-.043.076-.088.117-.129L17.987.116c.04-.04.085-.077.128-.116l.127.103.258.258.178.178.259.258.178.178c.08.128.297.211.275.336-.023.13-.193.238-.305.35-1.065 1.068-2.13 2.136-3.2 3.197-.117.116-.138.181.023.261.096.048.182.117.273.176l.183.133.341.26.146.12.332.274.143.127c.101.121.22.222.348.312l.082.08.307.305.13.13.317.344.125.138.26.303.138.168.294.374.089.124.224.336.125.187c.129.16.102.303-.03.454-.093.107-.159.239-.238.358-.383.5-.8.97-1.222 1.436-.056.056-.11.112-.167.167-.495.447-.996.89-1.525 1.298-.56.402-1.146.764-1.745 1.104l-.428.208-1.094.463a1.24 1.24 0 0 0-.348.116l-.923.26c-.087.012-.178.005-.257.055l-.785.137a.468.468 0 0 0-.261.032l-.698.057h-.22l-.652.006-.22-.007c-.203-.014-.406-.028-.61-.04l-.212-.025c-.19-.033-.379-.077-.573-.076-.051-.047-.114-.04-.175-.038l-.518-.112-.225-.058c-.522-.173-.522-.173-.907.212-1.407 1.407-2.817 2.813-4.219 4.226-.153.154-.257.2-.395.004-.036-.052-.094-.088-.143-.132l-.178-.178-.258-.258c-.06-.06-.119-.12-.179-.178l-.258-.258L0 18.115" fill="#007AFF" mask="url(#b)"/>
        </g>
        <g transform="translate(0 3.054)">
            <mask id="d" fill="#fff">
                <use xlink:href="#c"/>
            </mask>
            <path d="m12.548.22.432.096c.01.06-.031.092-.067.128l-1.399 1.4c-.054.055-.11.09-.189.087a2.198 2.198 0 0 0-.61-.042l-.218-.01-.654.014c-.089-.007-.177-.015-.26.023-.252.01-.501.032-.745.103-.092-.014-.176.018-.262.044a4.073 4.073 0 0 0-.918.251.76.76 0 0 0-.303.096c-.412.13-.808.297-1.18.517-.174.058-.33.148-.477.255-.065.033-.13.063-.192.1-1.145.694-2.136 1.566-3.01 2.576-.267.31-.267.31.04.596.006.005.013.007.02.01l.084.093c.085.117.186.218.298.308l.136.134c.092.11.193.212.311.295.025.047.062.08.113.097.103.118.218.222.353.304l.145.122c.102.104.219.19.344.265l.178.132.307.215c.062.093-.027.128-.072.174-.37.373-.743.745-1.116 1.115-.043.044-.076.113-.157.092a64.79 64.79 0 0 1-.346-.253.23.23 0 0 0-.12-.09 2.145 2.145 0 0 0-.367-.299.22.22 0 0 0-.115-.094c-.128-.128-.254-.259-.408-.358l-.084-.082-.308-.296-.133-.132-.296-.308-.082-.084c-.1-.154-.23-.28-.358-.408A.214.214 0 0 0 .77 7.29a88.631 88.631 0 0 0-.296-.37c-.016-.023-.032-.043-.049-.063a2.097 2.097 0 0 0-.266-.392.49.49 0 0 0-.128-.185c-.056-.083-.029-.15.022-.231.228-.367.48-.716.735-1.062A17.187 17.187 0 0 1 3.083 2.69c.625-.482 1.281-.919 1.965-1.314l.429-.218L6.613.662A1.23 1.23 0 0 0 6.96.549l.874-.247c.104-.015.21-.027.307-.075L8.925.09c.09.007.179.01.262-.033l.698-.055h.22L10.756 0l.22.008c.203.022.404.058.61.046a.269.269 0 0 0 .176.035l.565.085.22.046" fill="#007AFF" mask="url(#d)"/>
        </g>
    </g>
</svg>
