<svg width="45" height="40" viewBox="0 0 45 40" fill="none" xmlns="http://www.w3.org/2000/svg">
    <path fill-rule="evenodd" clip-rule="evenodd" d="m44.614 35.719-19.667-34.3c-1.088-1.892-3.806-1.892-4.893 0L.386 35.719C-.7 37.61.633 40 2.808 40h39.336c2.223 0 3.558-2.39 2.47-4.281zM21.883 11.923c1.186-.299 2.372.299 2.915 1.394.198.398.247.846.198 1.244a92.308 92.308 0 0 0-.198 3.784c-.05.97-.11 1.954-.173 2.937-.061.983-.123 1.966-.173 2.937-.025.305-.037.61-.05.921-.012.3-.024.604-.049.921-.049 1.045-.84 1.842-1.877 1.842a1.898 1.898 0 0 1-1.878-1.792c-.074-1.519-.16-3.037-.247-4.555v-.001a564.615 564.615 0 0 1-.247-4.554l-.074-1.217v-.006l-.075-1.217c0-1.194.791-2.34 1.928-2.638zm-1.829 20.261c0 1.394 1.087 2.54 2.471 2.54 1.334 0 2.47-1.146 2.52-2.49 0-1.444-1.087-2.589-2.47-2.589-1.384 0-2.52 1.145-2.52 2.54z" fill="#FF4D4D"/>
</svg>
