<svg width="80" height="33" xmlns="http://www.w3.org/2000/svg">
    <defs>
        <linearGradient x1="70.41%" y1="-5.5%" x2="17.834%" y2="91.677%" id="a">
            <stop stop-color="#11BCE2" offset="0%"/>
            <stop stop-color="#0569F7" offset="100%"/>
        </linearGradient>
    </defs>
    <g fill="none" fill-rule="evenodd">
        <path d="M16.38 0v3.304h-4.204l-.26.004c-4.768.138-8.603 4.047-8.603 8.833v20.485H0V12.141l.004-.304C.166 5.282 5.564 0 12.176 0h4.205zm4.744.04v32.369H17.93V.039h3.193zM7.394 17.797l.112.007a.888.888 0 0 1 .778.88v.704l-.007.111a.889.889 0 0 1-.882.776H5.859l-.111-.007a.888.888 0 0 1-.778-.88v-.704l.007-.112a.889.889 0 0 1 .882-.775h1.536z" transform="translate(37.475)" fill="url(#a)"/>
        <path d="M7.824 13.458c3.736 0 6.103 2.033 6.73 2.643l.092.092c.049.051.074.08.074.08l-2.218 2.291s-1.855-2.05-4.678-2.05c-2.38 0-3.55 1.166-3.55 2.372 0 1.407 1.453 2.172 4.517 2.815 3.55.764 6.574 2.09 6.574 5.87 0 3.58-3.79 5.429-7.38 5.429C2.742 33 0 29.1 0 29.1l2.34-2.172s1.975 3.016 5.645 3.016c1.895 0 4.033-.804 4.033-2.292 0-1.608-1.371-2.412-4.235-2.975-3.992-.805-6.815-2.373-6.815-5.871 0-2.695 2.702-5.348 6.856-5.348zm18.701 0c5.485 0 8.106 3.377 8.106 6.835v12.225h-3.105v-2.694S29.429 33 25.194 33c-3.347 0-6.936-2.332-6.936-6.353 0-3.62 3.186-6.193 7.38-6.193 3.22 0 5.337 1.349 5.582 1.512l.024.016v-1.005c0-3.86-3.226-4.383-4.719-4.383-2.823 0-5.565 1.568-5.565 1.568l-1.412-2.815s2.904-1.89 6.977-1.89zm44.401 0c5.203 0 9.074 3.9 9.074 9.892 0 .361 0 .643-.04 1.085H64.917c.202 2.815 2.904 5.429 6.413 5.429 3.454 0 5.372-2.422 5.585-2.707l.02-.028 2.138 2.212S76.25 33 71.33 33c-5.646 0-9.72-4.262-9.72-9.771 0-5.429 3.71-9.771 9.316-9.771zm-44.562 9.81c-2.904 0-4.718 1.449-4.718 3.379 0 2.413 2.177 3.377 4.274 3.377 3.307 0 5.324-2.814 5.324-2.814v-2.614s-1.855-1.327-4.88-1.327zm44.562-6.674c-4.032 0-5.686 3.096-5.928 5.026h11.695c-.121-2.09-2.016-5.026-5.767-5.026z" fill="#FFF"/>
    </g>
</svg>
